<mxfile host="Electron" modified="2023-06-14T23:36:19.118Z" agent="Mozilla/5.0 (Macintosh; Intel Mac OS X 10_15_7) AppleWebKit/537.36 (KHTML, like Gecko) draw.io/21.4.0 Chrome/112.0.5615.204 Electron/24.5.1 Safari/537.36" etag="XbkndmAPV4ggf9upgQks" version="21.4.0" type="device">
  <diagram name="Page-1" id="B1yo0fYO60-0N24Uez38">
    <mxGraphModel dx="1306" dy="894" grid="1" gridSize="10" guides="1" tooltips="1" connect="1" arrows="1" fold="1" page="1" pageScale="1" pageWidth="850" pageHeight="1100" math="0" shadow="0">
      <root>
        <mxCell id="0" />
        <mxCell id="1" parent="0" />
        <mxCell id="YhTuoAYsITykvQmshLvt-1" value="" style="rounded=1;whiteSpace=wrap;html=1;arcSize=5;fontFamily=SF Mono;fillColor=#CCFFCC;fontColor=#333333;strokeColor=#666666;" vertex="1" parent="1">
          <mxGeometry x="360" y="200" width="60" height="250" as="geometry" />
        </mxCell>
        <mxCell id="YhTuoAYsITykvQmshLvt-2" value="b" style="rounded=1;whiteSpace=wrap;html=1;arcSize=5;fontFamily=SF Mono;fillColor=#CCFFCC;fontColor=#333333;strokeColor=#666666;" vertex="1" parent="1">
          <mxGeometry x="360" y="200" width="60" height="50" as="geometry" />
        </mxCell>
        <mxCell id="YhTuoAYsITykvQmshLvt-3" value="a" style="rounded=1;whiteSpace=wrap;html=1;arcSize=5;fontFamily=SF Mono;fillColor=#CCFFCC;fontColor=#333333;strokeColor=#666666;" vertex="1" parent="1">
          <mxGeometry x="360" y="250" width="60" height="50" as="geometry" />
        </mxCell>
        <mxCell id="YhTuoAYsITykvQmshLvt-4" value="N" style="rounded=1;whiteSpace=wrap;html=1;arcSize=5;fontFamily=SF Mono;fillColor=#CCFFCC;fontColor=#333333;strokeColor=#666666;" vertex="1" parent="1">
          <mxGeometry x="360" y="300" width="60" height="50" as="geometry" />
        </mxCell>
        <mxCell id="YhTuoAYsITykvQmshLvt-5" value="retval" style="rounded=1;whiteSpace=wrap;html=1;arcSize=5;fontFamily=SF Mono;fillColor=#CCFFCC;fontColor=#333333;strokeColor=#666666;" vertex="1" parent="1">
          <mxGeometry x="360" y="350" width="60" height="50" as="geometry" />
        </mxCell>
        <mxCell id="YhTuoAYsITykvQmshLvt-6" value="..." style="rounded=1;whiteSpace=wrap;html=1;arcSize=5;fontFamily=SF Mono;fillColor=#CCFFCC;fontColor=#333333;strokeColor=#666666;" vertex="1" parent="1">
          <mxGeometry x="360" y="400" width="60" height="50" as="geometry" />
        </mxCell>
        <mxCell id="YhTuoAYsITykvQmshLvt-7" value="Stack" style="text;html=1;strokeColor=none;fillColor=none;align=center;verticalAlign=middle;whiteSpace=wrap;rounded=0;fontFamily=SF Mono;" vertex="1" parent="1">
          <mxGeometry x="360" y="160" width="60" height="30" as="geometry" />
        </mxCell>
        <mxCell id="YhTuoAYsITykvQmshLvt-8" value="H" style="text;html=1;strokeColor=none;fillColor=none;align=center;verticalAlign=middle;whiteSpace=wrap;rounded=0;fontFamily=SF Mono;" vertex="1" parent="1">
          <mxGeometry x="320" y="200" width="30" height="30" as="geometry" />
        </mxCell>
        <mxCell id="YhTuoAYsITykvQmshLvt-9" value="L" style="text;html=1;strokeColor=none;fillColor=none;align=center;verticalAlign=middle;whiteSpace=wrap;rounded=0;fontFamily=SF Mono;" vertex="1" parent="1">
          <mxGeometry x="320" y="420" width="30" height="30" as="geometry" />
        </mxCell>
        <mxCell id="YhTuoAYsITykvQmshLvt-10" value="" style="endArrow=classic;html=1;rounded=0;" edge="1" parent="1">
          <mxGeometry width="50" height="50" relative="1" as="geometry">
            <mxPoint x="270" y="399" as="sourcePoint" />
            <mxPoint x="350" y="399" as="targetPoint" />
          </mxGeometry>
        </mxCell>
        <mxCell id="YhTuoAYsITykvQmshLvt-11" value="&lt;font face=&quot;SF Mono&quot;&gt;SP&lt;/font&gt;" style="text;html=1;strokeColor=none;fillColor=none;align=center;verticalAlign=middle;whiteSpace=wrap;rounded=0;" vertex="1" parent="1">
          <mxGeometry x="280" y="369" width="60" height="30" as="geometry" />
        </mxCell>
      </root>
    </mxGraphModel>
  </diagram>
</mxfile>
